<svg xmlns="http://www.w3.org/2000/svg" width="1600" height="800" viewBox="0 0 1600 800" fill="none">
  <!-- Engineering graph paper: regular grid of cross-marks / plus signs -->
  <!-- Major grid every 80px, minor cross-marks at every 40px -->

  <!-- Major intersection cross-marks (larger) -->
  <g stroke="#B8B4A8" stroke-width="1" opacity="0.22">
    <!-- Generate major crosses at 80px intervals -->
    <!-- Row y=80 -->
    <line x1="76" y1="80" x2="84" y2="80"/><line x1="80" y1="76" x2="80" y2="84"/>
    <line x1="156" y1="80" x2="164" y2="80"/><line x1="160" y1="76" x2="160" y2="84"/>
    <line x1="236" y1="80" x2="244" y2="80"/><line x1="240" y1="76" x2="240" y2="84"/>
    <line x1="316" y1="80" x2="324" y2="80"/><line x1="320" y1="76" x2="320" y2="84"/>
    <line x1="396" y1="80" x2="404" y2="80"/><line x1="400" y1="76" x2="400" y2="84"/>
    <line x1="476" y1="80" x2="484" y2="80"/><line x1="480" y1="76" x2="480" y2="84"/>
    <line x1="556" y1="80" x2="564" y2="80"/><line x1="560" y1="76" x2="560" y2="84"/>
    <line x1="636" y1="80" x2="644" y2="80"/><line x1="640" y1="76" x2="640" y2="84"/>
    <line x1="716" y1="80" x2="724" y2="80"/><line x1="720" y1="76" x2="720" y2="84"/>
    <line x1="796" y1="80" x2="804" y2="80"/><line x1="800" y1="76" x2="800" y2="84"/>
    <line x1="876" y1="80" x2="884" y2="80"/><line x1="880" y1="76" x2="880" y2="84"/>
    <line x1="956" y1="80" x2="964" y2="80"/><line x1="960" y1="76" x2="960" y2="84"/>
    <line x1="1036" y1="80" x2="1044" y2="80"/><line x1="1040" y1="76" x2="1040" y2="84"/>
    <line x1="1116" y1="80" x2="1124" y2="80"/><line x1="1120" y1="76" x2="1120" y2="84"/>
    <line x1="1196" y1="80" x2="1204" y2="80"/><line x1="1200" y1="76" x2="1200" y2="84"/>
    <line x1="1276" y1="80" x2="1284" y2="80"/><line x1="1280" y1="76" x2="1280" y2="84"/>
    <line x1="1356" y1="80" x2="1364" y2="80"/><line x1="1360" y1="76" x2="1360" y2="84"/>
    <line x1="1436" y1="80" x2="1444" y2="80"/><line x1="1440" y1="76" x2="1440" y2="84"/>
    <line x1="1516" y1="80" x2="1524" y2="80"/><line x1="1520" y1="76" x2="1520" y2="84"/>
    <line x1="1596" y1="80" x2="1604" y2="80"/><line x1="1600" y1="76" x2="1600" y2="84"/>

    <!-- Row y=160 -->
    <line x1="76" y1="160" x2="84" y2="160"/><line x1="80" y1="156" x2="80" y2="164"/>
    <line x1="156" y1="160" x2="164" y2="160"/><line x1="160" y1="156" x2="160" y2="164"/>
    <line x1="236" y1="160" x2="244" y2="160"/><line x1="240" y1="156" x2="240" y2="164"/>
    <line x1="316" y1="160" x2="324" y2="160"/><line x1="320" y1="156" x2="320" y2="164"/>
    <line x1="396" y1="160" x2="404" y2="160"/><line x1="400" y1="156" x2="400" y2="164"/>
    <line x1="476" y1="160" x2="484" y2="160"/><line x1="480" y1="156" x2="480" y2="164"/>
    <line x1="556" y1="160" x2="564" y2="160"/><line x1="560" y1="156" x2="560" y2="164"/>
    <line x1="636" y1="160" x2="644" y2="160"/><line x1="640" y1="156" x2="640" y2="164"/>
    <line x1="716" y1="160" x2="724" y2="160"/><line x1="720" y1="156" x2="720" y2="164"/>
    <line x1="796" y1="160" x2="804" y2="160"/><line x1="800" y1="156" x2="800" y2="164"/>
    <line x1="876" y1="160" x2="884" y2="160"/><line x1="880" y1="156" x2="880" y2="164"/>
    <line x1="956" y1="160" x2="964" y2="160"/><line x1="960" y1="156" x2="960" y2="164"/>
    <line x1="1036" y1="160" x2="1044" y2="160"/><line x1="1040" y1="156" x2="1040" y2="164"/>
    <line x1="1116" y1="160" x2="1124" y2="160"/><line x1="1120" y1="156" x2="1120" y2="164"/>
    <line x1="1196" y1="160" x2="1204" y2="160"/><line x1="1200" y1="156" x2="1200" y2="164"/>
    <line x1="1276" y1="160" x2="1284" y2="160"/><line x1="1280" y1="156" x2="1280" y2="164"/>
    <line x1="1356" y1="160" x2="1364" y2="160"/><line x1="1360" y1="156" x2="1360" y2="164"/>
    <line x1="1436" y1="160" x2="1444" y2="160"/><line x1="1440" y1="156" x2="1440" y2="164"/>
    <line x1="1516" y1="160" x2="1524" y2="160"/><line x1="1520" y1="156" x2="1520" y2="164"/>

    <!-- Row y=240 -->
    <line x1="76" y1="240" x2="84" y2="240"/><line x1="80" y1="236" x2="80" y2="244"/>
    <line x1="156" y1="240" x2="164" y2="240"/><line x1="160" y1="236" x2="160" y2="244"/>
    <line x1="236" y1="240" x2="244" y2="240"/><line x1="240" y1="236" x2="240" y2="244"/>
    <line x1="316" y1="240" x2="324" y2="240"/><line x1="320" y1="236" x2="320" y2="244"/>
    <line x1="396" y1="240" x2="404" y2="240"/><line x1="400" y1="236" x2="400" y2="244"/>
    <line x1="476" y1="240" x2="484" y2="240"/><line x1="480" y1="236" x2="480" y2="244"/>
    <line x1="556" y1="240" x2="564" y2="240"/><line x1="560" y1="236" x2="560" y2="244"/>
    <line x1="636" y1="240" x2="644" y2="240"/><line x1="640" y1="236" x2="640" y2="244"/>
    <line x1="716" y1="240" x2="724" y2="240"/><line x1="720" y1="236" x2="720" y2="244"/>
    <line x1="796" y1="240" x2="804" y2="240"/><line x1="800" y1="236" x2="800" y2="244"/>
    <line x1="876" y1="240" x2="884" y2="240"/><line x1="880" y1="236" x2="880" y2="244"/>
    <line x1="956" y1="240" x2="964" y2="240"/><line x1="960" y1="236" x2="960" y2="244"/>
    <line x1="1036" y1="240" x2="1044" y2="240"/><line x1="1040" y1="236" x2="1040" y2="244"/>
    <line x1="1116" y1="240" x2="1124" y2="240"/><line x1="1120" y1="236" x2="1120" y2="244"/>
    <line x1="1196" y1="240" x2="1204" y2="240"/><line x1="1200" y1="236" x2="1200" y2="244"/>
    <line x1="1276" y1="240" x2="1284" y2="240"/><line x1="1280" y1="236" x2="1280" y2="244"/>
    <line x1="1356" y1="240" x2="1364" y2="240"/><line x1="1360" y1="236" x2="1360" y2="244"/>
    <line x1="1436" y1="240" x2="1444" y2="240"/><line x1="1440" y1="236" x2="1440" y2="244"/>
    <line x1="1516" y1="240" x2="1524" y2="240"/><line x1="1520" y1="236" x2="1520" y2="244"/>

    <!-- Row y=320 -->
    <line x1="76" y1="320" x2="84" y2="320"/><line x1="80" y1="316" x2="80" y2="324"/>
    <line x1="156" y1="320" x2="164" y2="320"/><line x1="160" y1="316" x2="160" y2="324"/>
    <line x1="236" y1="320" x2="244" y2="320"/><line x1="240" y1="316" x2="240" y2="324"/>
    <line x1="316" y1="320" x2="324" y2="320"/><line x1="320" y1="316" x2="320" y2="324"/>
    <line x1="396" y1="320" x2="404" y2="320"/><line x1="400" y1="316" x2="400" y2="324"/>
    <line x1="476" y1="320" x2="484" y2="320"/><line x1="480" y1="316" x2="480" y2="324"/>
    <line x1="556" y1="320" x2="564" y2="320"/><line x1="560" y1="316" x2="560" y2="324"/>
    <line x1="636" y1="320" x2="644" y2="320"/><line x1="640" y1="316" x2="640" y2="324"/>
    <line x1="716" y1="320" x2="724" y2="320"/><line x1="720" y1="316" x2="720" y2="324"/>
    <line x1="796" y1="320" x2="804" y2="320"/><line x1="800" y1="316" x2="800" y2="324"/>
    <line x1="876" y1="320" x2="884" y2="320"/><line x1="880" y1="316" x2="880" y2="324"/>
    <line x1="956" y1="320" x2="964" y2="320"/><line x1="960" y1="316" x2="960" y2="324"/>
    <line x1="1036" y1="320" x2="1044" y2="320"/><line x1="1040" y1="316" x2="1040" y2="324"/>
    <line x1="1116" y1="320" x2="1124" y2="320"/><line x1="1120" y1="316" x2="1120" y2="324"/>
    <line x1="1196" y1="320" x2="1204" y2="320"/><line x1="1200" y1="316" x2="1200" y2="324"/>
    <line x1="1276" y1="320" x2="1284" y2="320"/><line x1="1280" y1="316" x2="1280" y2="324"/>
    <line x1="1356" y1="320" x2="1364" y2="320"/><line x1="1360" y1="316" x2="1360" y2="324"/>
    <line x1="1436" y1="320" x2="1444" y2="320"/><line x1="1440" y1="316" x2="1440" y2="324"/>
    <line x1="1516" y1="320" x2="1524" y2="320"/><line x1="1520" y1="316" x2="1520" y2="324"/>

    <!-- Row y=400 -->
    <line x1="76" y1="400" x2="84" y2="400"/><line x1="80" y1="396" x2="80" y2="404"/>
    <line x1="156" y1="400" x2="164" y2="400"/><line x1="160" y1="396" x2="160" y2="404"/>
    <line x1="236" y1="400" x2="244" y2="400"/><line x1="240" y1="396" x2="240" y2="404"/>
    <line x1="316" y1="400" x2="324" y2="400"/><line x1="320" y1="396" x2="320" y2="404"/>
    <line x1="396" y1="400" x2="404" y2="400"/><line x1="400" y1="396" x2="400" y2="404"/>
    <line x1="476" y1="400" x2="484" y2="400"/><line x1="480" y1="396" x2="480" y2="404"/>
    <line x1="556" y1="400" x2="564" y2="400"/><line x1="560" y1="396" x2="560" y2="404"/>
    <line x1="636" y1="400" x2="644" y2="400"/><line x1="640" y1="396" x2="640" y2="404"/>
    <line x1="716" y1="400" x2="724" y2="400"/><line x1="720" y1="396" x2="720" y2="404"/>
    <line x1="796" y1="400" x2="804" y2="400"/><line x1="800" y1="396" x2="800" y2="404"/>
    <line x1="876" y1="400" x2="884" y2="400"/><line x1="880" y1="396" x2="880" y2="404"/>
    <line x1="956" y1="400" x2="964" y2="400"/><line x1="960" y1="396" x2="960" y2="404"/>
    <line x1="1036" y1="400" x2="1044" y2="400"/><line x1="1040" y1="396" x2="1040" y2="404"/>
    <line x1="1116" y1="400" x2="1124" y2="400"/><line x1="1120" y1="396" x2="1120" y2="404"/>
    <line x1="1196" y1="400" x2="1204" y2="400"/><line x1="1200" y1="396" x2="1200" y2="404"/>
    <line x1="1276" y1="400" x2="1284" y2="400"/><line x1="1280" y1="396" x2="1280" y2="404"/>
    <line x1="1356" y1="400" x2="1364" y2="400"/><line x1="1360" y1="396" x2="1360" y2="404"/>
    <line x1="1436" y1="400" x2="1444" y2="400"/><line x1="1440" y1="396" x2="1440" y2="404"/>
    <line x1="1516" y1="400" x2="1524" y2="400"/><line x1="1520" y1="396" x2="1520" y2="404"/>

    <!-- Row y=480 -->
    <line x1="76" y1="480" x2="84" y2="480"/><line x1="80" y1="476" x2="80" y2="484"/>
    <line x1="156" y1="480" x2="164" y2="480"/><line x1="160" y1="476" x2="160" y2="484"/>
    <line x1="236" y1="480" x2="244" y2="480"/><line x1="240" y1="476" x2="240" y2="484"/>
    <line x1="316" y1="480" x2="324" y2="480"/><line x1="320" y1="476" x2="320" y2="484"/>
    <line x1="396" y1="480" x2="404" y2="480"/><line x1="400" y1="476" x2="400" y2="484"/>
    <line x1="476" y1="480" x2="484" y2="480"/><line x1="480" y1="476" x2="480" y2="484"/>
    <line x1="556" y1="480" x2="564" y2="480"/><line x1="560" y1="476" x2="560" y2="484"/>
    <line x1="636" y1="480" x2="644" y2="480"/><line x1="640" y1="476" x2="640" y2="484"/>
    <line x1="716" y1="480" x2="724" y2="480"/><line x1="720" y1="476" x2="720" y2="484"/>
    <line x1="796" y1="480" x2="804" y2="480"/><line x1="800" y1="476" x2="800" y2="484"/>
    <line x1="876" y1="480" x2="884" y2="480"/><line x1="880" y1="476" x2="880" y2="484"/>
    <line x1="956" y1="480" x2="964" y2="480"/><line x1="960" y1="476" x2="960" y2="484"/>
    <line x1="1036" y1="480" x2="1044" y2="480"/><line x1="1040" y1="476" x2="1040" y2="484"/>
    <line x1="1116" y1="480" x2="1124" y2="480"/><line x1="1120" y1="476" x2="1120" y2="484"/>
    <line x1="1196" y1="480" x2="1204" y2="480"/><line x1="1200" y1="476" x2="1200" y2="484"/>
    <line x1="1276" y1="480" x2="1284" y2="480"/><line x1="1280" y1="476" x2="1280" y2="484"/>
    <line x1="1356" y1="480" x2="1364" y2="480"/><line x1="1360" y1="476" x2="1360" y2="484"/>
    <line x1="1436" y1="480" x2="1444" y2="480"/><line x1="1440" y1="476" x2="1440" y2="484"/>
    <line x1="1516" y1="480" x2="1524" y2="480"/><line x1="1520" y1="476" x2="1520" y2="484"/>

    <!-- Row y=560 -->
    <line x1="76" y1="560" x2="84" y2="560"/><line x1="80" y1="556" x2="80" y2="564"/>
    <line x1="156" y1="560" x2="164" y2="560"/><line x1="160" y1="556" x2="160" y2="564"/>
    <line x1="236" y1="560" x2="244" y2="560"/><line x1="240" y1="556" x2="240" y2="564"/>
    <line x1="316" y1="560" x2="324" y2="560"/><line x1="320" y1="556" x2="320" y2="564"/>
    <line x1="396" y1="560" x2="404" y2="560"/><line x1="400" y1="556" x2="400" y2="564"/>
    <line x1="476" y1="560" x2="484" y2="560"/><line x1="480" y1="556" x2="480" y2="564"/>
    <line x1="556" y1="560" x2="564" y2="560"/><line x1="560" y1="556" x2="560" y2="564"/>
    <line x1="636" y1="560" x2="644" y2="560"/><line x1="640" y1="556" x2="640" y2="564"/>
    <line x1="716" y1="560" x2="724" y2="560"/><line x1="720" y1="556" x2="720" y2="564"/>
    <line x1="796" y1="560" x2="804" y2="560"/><line x1="800" y1="556" x2="800" y2="564"/>
    <line x1="876" y1="560" x2="884" y2="560"/><line x1="880" y1="556" x2="880" y2="564"/>
    <line x1="956" y1="560" x2="964" y2="560"/><line x1="960" y1="556" x2="960" y2="564"/>
    <line x1="1036" y1="560" x2="1044" y2="560"/><line x1="1040" y1="556" x2="1040" y2="564"/>
    <line x1="1116" y1="560" x2="1124" y2="560"/><line x1="1120" y1="556" x2="1120" y2="564"/>
    <line x1="1196" y1="560" x2="1204" y2="560"/><line x1="1200" y1="556" x2="1200" y2="564"/>
    <line x1="1276" y1="560" x2="1284" y2="560"/><line x1="1280" y1="556" x2="1280" y2="564"/>
    <line x1="1356" y1="560" x2="1364" y2="560"/><line x1="1360" y1="556" x2="1360" y2="564"/>
    <line x1="1436" y1="560" x2="1444" y2="560"/><line x1="1440" y1="556" x2="1440" y2="564"/>
    <line x1="1516" y1="560" x2="1524" y2="560"/><line x1="1520" y1="556" x2="1520" y2="564"/>

    <!-- Row y=640 -->
    <line x1="76" y1="640" x2="84" y2="640"/><line x1="80" y1="636" x2="80" y2="644"/>
    <line x1="156" y1="640" x2="164" y2="640"/><line x1="160" y1="636" x2="160" y2="644"/>
    <line x1="236" y1="640" x2="244" y2="640"/><line x1="240" y1="636" x2="240" y2="644"/>
    <line x1="316" y1="640" x2="324" y2="640"/><line x1="320" y1="636" x2="320" y2="644"/>
    <line x1="396" y1="640" x2="404" y2="640"/><line x1="400" y1="636" x2="400" y2="644"/>
    <line x1="476" y1="640" x2="484" y2="640"/><line x1="480" y1="636" x2="480" y2="644"/>
    <line x1="556" y1="640" x2="564" y2="640"/><line x1="560" y1="636" x2="560" y2="644"/>
    <line x1="636" y1="640" x2="644" y2="640"/><line x1="640" y1="636" x2="640" y2="644"/>
    <line x1="716" y1="640" x2="724" y2="640"/><line x1="720" y1="636" x2="720" y2="644"/>
    <line x1="796" y1="640" x2="804" y2="640"/><line x1="800" y1="636" x2="800" y2="644"/>
    <line x1="876" y1="640" x2="884" y2="640"/><line x1="880" y1="636" x2="880" y2="644"/>
    <line x1="956" y1="640" x2="964" y2="640"/><line x1="960" y1="636" x2="960" y2="644"/>
    <line x1="1036" y1="640" x2="1044" y2="640"/><line x1="1040" y1="636" x2="1040" y2="644"/>
    <line x1="1116" y1="640" x2="1124" y2="640"/><line x1="1120" y1="636" x2="1120" y2="644"/>
    <line x1="1196" y1="640" x2="1204" y2="640"/><line x1="1200" y1="636" x2="1200" y2="644"/>
    <line x1="1276" y1="640" x2="1284" y2="640"/><line x1="1280" y1="636" x2="1280" y2="644"/>
    <line x1="1356" y1="640" x2="1364" y2="640"/><line x1="1360" y1="636" x2="1360" y2="644"/>
    <line x1="1436" y1="640" x2="1444" y2="640"/><line x1="1440" y1="636" x2="1440" y2="644"/>
    <line x1="1516" y1="640" x2="1524" y2="640"/><line x1="1520" y1="636" x2="1520" y2="644"/>

    <!-- Row y=720 -->
    <line x1="76" y1="720" x2="84" y2="720"/><line x1="80" y1="716" x2="80" y2="724"/>
    <line x1="156" y1="720" x2="164" y2="720"/><line x1="160" y1="716" x2="160" y2="724"/>
    <line x1="236" y1="720" x2="244" y2="720"/><line x1="240" y1="716" x2="240" y2="724"/>
    <line x1="316" y1="720" x2="324" y2="720"/><line x1="320" y1="716" x2="320" y2="724"/>
    <line x1="396" y1="720" x2="404" y2="720"/><line x1="400" y1="716" x2="400" y2="724"/>
    <line x1="476" y1="720" x2="484" y2="720"/><line x1="480" y1="716" x2="480" y2="724"/>
    <line x1="556" y1="720" x2="564" y2="720"/><line x1="560" y1="716" x2="560" y2="724"/>
    <line x1="636" y1="720" x2="644" y2="720"/><line x1="640" y1="716" x2="640" y2="724"/>
    <line x1="716" y1="720" x2="724" y2="720"/><line x1="720" y1="716" x2="720" y2="724"/>
    <line x1="796" y1="720" x2="804" y2="720"/><line x1="800" y1="716" x2="800" y2="724"/>
    <line x1="876" y1="720" x2="884" y2="720"/><line x1="880" y1="716" x2="880" y2="724"/>
    <line x1="956" y1="720" x2="964" y2="720"/><line x1="960" y1="716" x2="960" y2="724"/>
    <line x1="1036" y1="720" x2="1044" y2="720"/><line x1="1040" y1="716" x2="1040" y2="724"/>
    <line x1="1116" y1="720" x2="1124" y2="720"/><line x1="1120" y1="716" x2="1120" y2="724"/>
    <line x1="1196" y1="720" x2="1204" y2="720"/><line x1="1200" y1="716" x2="1200" y2="724"/>
    <line x1="1276" y1="720" x2="1284" y2="720"/><line x1="1280" y1="716" x2="1280" y2="724"/>
    <line x1="1356" y1="720" x2="1364" y2="720"/><line x1="1360" y1="716" x2="1360" y2="724"/>
    <line x1="1436" y1="720" x2="1444" y2="720"/><line x1="1440" y1="716" x2="1440" y2="724"/>
    <line x1="1516" y1="720" x2="1524" y2="720"/><line x1="1520" y1="716" x2="1520" y2="724"/>
  </g>
</svg>
