<svg xmlns="http://www.w3.org/2000/svg" viewBox="0 0 600 400" width="600" height="400">
  <defs>
    <pattern id="grid" width="30" height="30" patternUnits="userSpaceOnUse">
      <path d="M 30 0 L 0 0 0 30" fill="none" stroke="#1F2024" stroke-width="0.5"/>
    </pattern>
    <radialGradient id="map-glow" cx="40%" cy="50%" r="60%">
      <stop offset="0%" stop-color="#1F2430" stop-opacity="1"/>
      <stop offset="100%" stop-color="#1A1B1E" stop-opacity="1"/>
    </radialGradient>
    <filter id="dot-glow">
      <feGaussianBlur stdDeviation="2" result="blur"/>
      <feMerge><feMergeNode in="blur"/><feMergeNode in="SourceGraphic"/></feMerge>
    </filter>
  </defs>

  <!-- Background -->
  <rect width="600" height="400" fill="#1A1B1E"/>
  <!-- Grid overlay -->
  <rect width="600" height="400" fill="url(#grid)" opacity="0.6"/>

  <!-- ─── LEFT PANEL: Map area (0–330) ─── -->
  <!-- Panel background -->
  <rect x="12" y="12" width="318" height="268" rx="6" fill="#121315" stroke="#1F2024" stroke-width="1"/>
  <!-- Panel label -->
  <text x="22" y="30" font-family="monospace" font-size="9" fill="#8A8C92" letter-spacing="1.5">MADHYA PRADESH · DTR NETWORK</text>
  <line x1="22" y1="34" x2="322" y2="34" stroke="#1F2024" stroke-width="1"/>

  <!-- MP outline (simplified) -->
  <path d="M 40 80 Q 70 60 110 68 Q 150 58 195 72 Q 235 65 270 75 Q 300 68 318 80
           L 318 210 Q 295 225 260 220 Q 225 230 195 215 Q 162 228 130 215 Q 95 228 65 215 L 40 210 Z"
        fill="url(#map-glow)" stroke="#2A2D35" stroke-width="1.5" opacity="0.9"/>

  <!-- District subdivision lines -->
  <g stroke="#1F2024" stroke-width="0.8" fill="none" opacity="0.6">
    <line x1="120" y1="70" x2="115" y2="220"/>
    <line x1="200" y1="65" x2="198" y2="225"/>
    <line x1="40" y1="140" x2="318" y2="145"/>
  </g>

  <!-- DTR Dots -->
  <!-- DTR-01: Green (healthy) -->
  <circle cx="82" cy="105" r="7" fill="#1A1B1E" stroke="#22C55E" stroke-width="1.5" filter="url(#dot-glow)"/>
  <circle cx="82" cy="105" r="3" fill="#22C55E"/>
  <!-- DTR-02: Green -->
  <circle cx="140" cy="90" r="7" fill="#1A1B1E" stroke="#22C55E" stroke-width="1.5"/>
  <circle cx="140" cy="90" r="3" fill="#22C55E"/>
  <!-- DTR-03: Green -->
  <circle cx="100" cy="165" r="7" fill="#1A1B1E" stroke="#22C55E" stroke-width="1.5"/>
  <circle cx="100" cy="165" r="3" fill="#22C55E"/>
  <!-- DTR-04: Green -->
  <circle cx="168" cy="148" r="7" fill="#1A1B1E" stroke="#22C55E" stroke-width="1.5"/>
  <circle cx="168" cy="148" r="3" fill="#22C55E"/>
  <!-- DTR-05: Green -->
  <circle cx="222" cy="95" r="7" fill="#1A1B1E" stroke="#22C55E" stroke-width="1.5"/>
  <circle cx="222" cy="95" r="3" fill="#22C55E"/>
  <!-- DTR-06: Green -->
  <circle cx="250" cy="170" r="7" fill="#1A1B1E" stroke="#22C55E" stroke-width="1.5"/>
  <circle cx="250" cy="170" r="3" fill="#22C55E"/>
  <!-- DTR-07: Amber (warning) -->
  <circle cx="290" cy="115" r="9" fill="#1A1B1E" stroke="#F59E0B" stroke-width="2" filter="url(#dot-glow)"/>
  <circle cx="290" cy="115" r="4" fill="#F59E0B" opacity="0.9"/>
  <text x="302" y="111" font-family="monospace" font-size="7" fill="#F59E0B">WARN</text>
  <!-- DTR-08: Red (alert) -->
  <circle cx="170" cy="200" r="10" fill="#1A1B1E" stroke="#EF4444" stroke-width="2" filter="url(#dot-glow)"/>
  <circle cx="170" cy="200" r="4" fill="#EF4444" opacity="0.9"/>
  <text x="183" y="197" font-family="monospace" font-size="7" fill="#EF4444">ALERT</text>

  <!-- Network lines connecting DTRs -->
  <g stroke="#2A2D35" stroke-width="0.8" fill="none" opacity="0.7">
    <line x1="82" y1="105" x2="140" y2="90"/>
    <line x1="140" y1="90" x2="222" y2="95"/>
    <line x1="222" y1="95" x2="290" y2="115"/>
    <line x1="82" y1="105" x2="100" y2="165"/>
    <line x1="100" y1="165" x2="168" y2="148"/>
    <line x1="168" y1="148" x2="250" y2="170"/>
    <line x1="168" y1="148" x2="170" y2="200"/>
    <line x1="140" y1="90" x2="168" y2="148"/>
  </g>
  <!-- Alert path highlight -->
  <line x1="168" y1="148" x2="170" y2="200" stroke="#EF4444" stroke-width="1" opacity="0.4"/>

  <!-- Legend -->
  <circle cx="30" cy="248" r="4" fill="#22C55E"/>
  <text x="38" y="252" font-family="monospace" font-size="8" fill="#8A8C92">Healthy</text>
  <circle cx="85" cy="248" r="4" fill="#F59E0B"/>
  <text x="93" y="252" font-family="monospace" font-size="8" fill="#8A8C92">Warning</text>
  <circle cx="145" cy="248" r="4" fill="#EF4444"/>
  <text x="153" y="252" font-family="monospace" font-size="8" fill="#8A8C92">Alert</text>

  <!-- ─── RIGHT PANEL: KPI Tiles ─── -->
  <!-- Active DTRs tile -->
  <rect x="340" y="12" width="248" height="72" rx="6" fill="#121315" stroke="#1F2024" stroke-width="1"/>
  <text x="355" y="33" font-family="monospace" font-size="8" fill="#8A8C92" letter-spacing="1">ACTIVE DTRs</text>
  <circle cx="580" cy="26" r="4" fill="#22C55E"/>
  <text x="355" y="62" font-family="monospace" font-size="28" fill="#F5F4EE" font-weight="bold">8</text>
  <text x="385" y="62" font-family="monospace" font-size="12" fill="#8A8C92">/ 8 online</text>

  <!-- Refresh interval tile -->
  <rect x="340" y="92" width="248" height="72" rx="6" fill="#121315" stroke="#1F2024" stroke-width="1"/>
  <text x="355" y="113" font-family="monospace" font-size="8" fill="#8A8C92" letter-spacing="1">REFRESH INTERVAL</text>
  <!-- Clock icon -->
  <circle cx="576" cy="106" r="8" fill="none" stroke="#8A8C92" stroke-width="1"/>
  <line x1="576" y1="100" x2="576" y2="106" stroke="#8A8C92" stroke-width="1"/>
  <line x1="576" y1="106" x2="580" y2="108" stroke="#8A8C92" stroke-width="1"/>
  <text x="355" y="142" font-family="monospace" font-size="22" fill="#F5F4EE" font-weight="bold">5 min</text>

  <!-- Alerts tile -->
  <rect x="340" y="172" width="248" height="72" rx="6" fill="#121315" stroke="#1F2024" stroke-width="1"/>
  <text x="355" y="193" font-family="monospace" font-size="8" fill="#8A8C92" letter-spacing="1">ACTIVE ALERTS</text>
  <!-- Warning triangle -->
  <path d="M 576 188 L 568 202 L 584 202 Z" fill="none" stroke="#F59E0B" stroke-width="1.5"/>
  <text x="576" y="200" font-family="monospace" font-size="7" fill="#F59E0B" text-anchor="middle">!</text>
  <text x="355" y="222" font-family="monospace" font-size="22" fill="#F59E0B" font-weight="bold">1</text>
  <text x="379" y="222" font-family="monospace" font-size="11" fill="#8A8C92"> amber · 0 critical</text>

  <!-- Last sync -->
  <rect x="340" y="252" width="248" height="28" rx="4" fill="#0F1012" stroke="#1F2024" stroke-width="1"/>
  <circle cx="354" cy="266" r="3" fill="#22C55E"/>
  <text x="363" y="270" font-family="monospace" font-size="8" fill="#22C55E" letter-spacing="0.5">LIVE · GPRS · Last sync 2 min ago</text>

  <!-- ─── BOTTOM: Time-series chart ─── -->
  <rect x="12" y="290" width="576" height="98" rx="6" fill="#121315" stroke="#1F2024" stroke-width="1"/>
  <text x="22" y="308" font-family="monospace" font-size="9" fill="#8A8C92" letter-spacing="1.5">VOLTAGE · 24H OVERVIEW · DTR-04</text>
  <line x1="22" y1="312" x2="580" y2="312" stroke="#1F2024" stroke-width="0.5"/>

  <!-- Chart area background bands -->
  <rect x="22" y="315" width="556" height="58" fill="#0A0B0D" opacity="0.4"/>

  <!-- Y axis labels -->
  <text x="20" y="326" font-family="monospace" font-size="7" fill="#555860" text-anchor="end">420V</text>
  <text x="20" y="346" font-family="monospace" font-size="7" fill="#555860" text-anchor="end">415V</text>
  <text x="20" y="366" font-family="monospace" font-size="7" fill="#555860" text-anchor="end">410V</text>

  <!-- Horizontal guide lines -->
  <line x1="22" y1="325" x2="580" y2="325" stroke="#1F2024" stroke-width="0.5"/>
  <line x1="22" y1="345" x2="580" y2="345" stroke="#1F2024" stroke-width="0.5"/>
  <line x1="22" y1="365" x2="580" y2="365" stroke="#1F2024" stroke-width="0.5"/>

  <!-- Time-series voltage line -->
  <polyline
    points="22,345 45,340 68,348 91,335 114,342 137,338 160,350 183,332 206,344 229,340 252,352 275,330 298,342 321,336 344,348 367,328 390,345 413,334 436,350 459,338 482,344 505,330 528,348 551,335 574,342 580,340"
    fill="none" stroke="#3D2BFF" stroke-width="1.5" stroke-linejoin="round"/>

  <!-- Fill under curve -->
  <polygon
    points="22,345 45,340 68,348 91,335 114,342 137,338 160,350 183,332 206,344 229,340 252,352 275,330 298,342 321,336 344,348 367,328 390,345 413,334 436,350 459,338 482,344 505,330 528,348 551,335 574,342 580,340 580,373 22,373"
    fill="#3D2BFF" opacity="0.06"/>

  <!-- Alert spike highlight -->
  <circle cx="252" cy="352" r="3" fill="#EF4444"/>
  <line x1="252" y1="315" x2="252" y2="373" stroke="#EF4444" stroke-width="0.5" stroke-dasharray="2 2" opacity="0.4"/>

  <!-- X axis time labels -->
  <text x="22" y="385" font-family="monospace" font-size="7" fill="#555860">00:00</text>
  <text x="94" y="385" font-family="monospace" font-size="7" fill="#555860">04:00</text>
  <text x="182" y="385" font-family="monospace" font-size="7" fill="#555860">08:00</text>
  <text x="270" y="385" font-family="monospace" font-size="7" fill="#555860">12:00</text>
  <text x="358" y="385" font-family="monospace" font-size="7" fill="#555860">16:00</text>
  <text x="446" y="385" font-family="monospace" font-size="7" fill="#555860">20:00</text>
  <text x="560" y="385" font-family="monospace" font-size="7" fill="#555860" text-anchor="end">24:00</text>
</svg>
