<svg xmlns="http://www.w3.org/2000/svg" viewBox="0 0 1600 1000" width="1600" height="1000">
  <defs>
    <radialGradient id="bg" cx="50%" cy="45%" r="70%">
      <stop offset="0%" stop-color="#0C0D12"/>
      <stop offset="100%" stop-color="#0A0B0D"/>
    </radialGradient>
    <radialGradient id="cluster-glow" cx="50%" cy="50%" r="50%">
      <stop offset="0%" stop-color="#3D2BFF" stop-opacity="0.25"/>
      <stop offset="100%" stop-color="#3D2BFF" stop-opacity="0"/>
    </radialGradient>
    <radialGradient id="anomaly-glow" cx="50%" cy="50%" r="50%">
      <stop offset="0%" stop-color="#FF6B35" stop-opacity="0.3"/>
      <stop offset="100%" stop-color="#FF6B35" stop-opacity="0"/>
    </radialGradient>
    <filter id="glow">
      <feGaussianBlur stdDeviation="6"/>
    </filter>
  </defs>

  <rect width="1600" height="1000" fill="url(#bg)"/>

  <!-- Background grid -->
  <g stroke="#1A1B1E" stroke-width="0.5" fill="none">
    <line x1="0" y1="200" x2="1600" y2="200"/>
    <line x1="0" y1="400" x2="1600" y2="400"/>
    <line x1="0" y1="600" x2="1600" y2="600"/>
    <line x1="0" y1="800" x2="1600" y2="800"/>
    <line x1="320" y1="0" x2="320" y2="1000"/>
    <line x1="640" y1="0" x2="640" y2="1000"/>
    <line x1="960" y1="0" x2="960" y2="1000"/>
    <line x1="1280" y1="0" x2="1280" y2="1000"/>
  </g>

  <!-- Network edges - normal (grey) -->
  <g stroke="#2A2B30" stroke-width="1" fill="none" opacity="0.5">
    <!-- Central cluster edges -->
    <line x1="700" y1="480" x2="580" y2="360"/>
    <line x1="700" y1="480" x2="760" y2="320"/>
    <line x1="700" y1="480" x2="860" y2="400"/>
    <line x1="700" y1="480" x2="820" y2="560"/>
    <line x1="700" y1="480" x2="620" y2="580"/>
    <line x1="700" y1="480" x2="540" y2="500"/>
    <!-- Outer normal connections -->
    <line x1="580" y1="360" x2="480" y2="260"/>
    <line x1="580" y1="360" x2="420" y2="380"/>
    <line x1="760" y1="320" x2="840" y2="220"/>
    <line x1="760" y1="320" x2="920" y2="280"/>
    <line x1="860" y1="400" x2="980" y2="340"/>
    <line x1="860" y1="400" x2="1040" y2="440"/>
    <line x1="820" y1="560" x2="960" y2="600"/>
    <line x1="820" y1="560" x2="940" y2="680"/>
    <line x1="620" y1="580" x2="520" y2="660"/>
    <line x1="620" y1="580" x2="460" y2="620"/>
    <line x1="540" y1="500" x2="400" y2="520"/>
    <line x1="540" y1="500" x2="380" y2="440"/>
    <!-- Extended network -->
    <line x1="480" y1="260" x2="360" y2="200"/>
    <line x1="480" y1="260" x2="340" y2="300"/>
    <line x1="420" y1="380" x2="300" y2="380"/>
    <line x1="840" y1="220" x2="960" y2="160"/>
    <line x1="920" y1="280" x2="1060" y2="280"/>
    <line x1="980" y1="340" x2="1120" y2="320"/>
    <line x1="1040" y1="440" x2="1180" y2="420"/>
    <line x1="960" y1="600" x2="1100" y2="620"/>
    <line x1="940" y1="680" x2="1080" y2="700"/>
    <line x1="520" y1="660" x2="400" y2="720"/>
    <line x1="460" y1="620" x2="320" y2="640"/>
    <line x1="400" y1="520" x2="260" y2="560"/>
  </g>

  <!-- Anomaly cluster edges (weighted, highlighted) -->
  <g stroke="#FF6B35" stroke-width="2" fill="none" opacity="0.6">
    <line x1="1080" y1="700" x2="1180" y2="640"/>
    <line x1="1080" y1="700" x2="1200" y2="720"/>
    <line x1="1080" y1="700" x2="1160" y2="780"/>
    <line x1="1180" y1="640" x2="1280" y2="600"/>
    <line x1="1200" y1="720" x2="1280" y2="700"/>
    <line x1="1160" y1="780" x2="1240" y2="820"/>
    <line x1="1280" y1="600" x2="1360" y2="560"/>
    <line x1="940" y1="680" x2="1080" y2="700"/>
  </g>
  <!-- Glow on anomaly edges -->
  <g stroke="#FF6B35" stroke-width="4" fill="none" opacity="0.15" filter="url(#glow)">
    <line x1="1080" y1="700" x2="1180" y2="640"/>
    <line x1="1080" y1="700" x2="1200" y2="720"/>
    <line x1="1080" y1="700" x2="1160" y2="780"/>
  </g>

  <!-- Normal network nodes -->
  <g fill="#2A2B30" stroke="#3A3B42" stroke-width="1">
    <circle cx="480" cy="260" r="8"/>
    <circle cx="420" cy="380" r="8"/>
    <circle cx="400" cy="520" r="7"/>
    <circle cx="380" cy="440" r="6"/>
    <circle cx="360" cy="200" r="6"/>
    <circle cx="340" cy="300" r="6"/>
    <circle cx="300" cy="380" r="6"/>
    <circle cx="260" cy="560" r="6"/>
    <circle cx="320" cy="640" r="6"/>
    <circle cx="400" cy="720" r="6"/>
    <circle cx="840" cy="220" r="8"/>
    <circle cx="920" cy="280" r="7"/>
    <circle cx="960" cy="160" r="6"/>
    <circle cx="1060" cy="280" r="6"/>
    <circle cx="980" cy="340" r="8"/>
    <circle cx="1120" cy="320" r="6"/>
    <circle cx="1040" cy="440" r="8"/>
    <circle cx="1180" cy="420" r="7"/>
    <circle cx="960" cy="600" r="8"/>
    <circle cx="1100" cy="620" r="7"/>
  </g>

  <!-- Highlighted normal cluster (indigo) - central -->
  <circle cx="700" cy="480" r="80" fill="url(#cluster-glow)" filter="url(#glow)"/>
  <circle cx="700" cy="480" r="16" fill="#1A1B1E" stroke="#3D2BFF" stroke-width="2"/>
  <circle cx="700" cy="480" r="7" fill="#3D2BFF" opacity="0.9"/>
  <text x="720" y="470" font-family="monospace" font-size="9" fill="#3D2BFF">HUB-01</text>

  <circle cx="580" cy="360" r="12" fill="#1A1B1E" stroke="#3D2BFF" stroke-width="1.5"/>
  <circle cx="580" cy="360" r="5" fill="#3D2BFF" opacity="0.7"/>
  <circle cx="760" cy="320" r="12" fill="#1A1B1E" stroke="#3D2BFF" stroke-width="1.5"/>
  <circle cx="760" cy="320" r="5" fill="#3D2BFF" opacity="0.7"/>
  <circle cx="860" cy="400" r="11" fill="#1A1B1E" stroke="#3D2BFF" stroke-width="1.5"/>
  <circle cx="860" cy="400" r="4" fill="#3D2BFF" opacity="0.6"/>
  <circle cx="820" cy="560" r="11" fill="#1A1B1E" stroke="#3D2BFF" stroke-width="1.5"/>
  <circle cx="820" cy="560" r="4" fill="#3D2BFF" opacity="0.6"/>
  <circle cx="620" cy="580" r="11" fill="#1A1B1E" stroke="#3D2BFF" stroke-width="1.5"/>
  <circle cx="620" cy="580" r="4" fill="#3D2BFF" opacity="0.6"/>
  <circle cx="540" cy="500" r="10" fill="#1A1B1E" stroke="#3D2BFF" stroke-width="1.5"/>
  <circle cx="540" cy="500" r="4" fill="#3D2BFF" opacity="0.5"/>
  <circle cx="940" cy="680" r="9" fill="#1A1B1E" stroke="#3A3B42" stroke-width="1"/>
  <circle cx="940" cy="680" r="4" fill="#3A3B42" opacity="0.7"/>
  <circle cx="520" cy="660" r="7" fill="#1A1B1E" stroke="#3A3B42" stroke-width="1"/>
  <circle cx="460" cy="620" r="7" fill="#1A1B1E" stroke="#3A3B42" stroke-width="1"/>

  <!-- Anomaly cluster (fraud ring) -->
  <circle cx="1120" cy="710" r="120" fill="url(#anomaly-glow)" filter="url(#glow)"/>
  <circle cx="1120" cy="710" r="100" fill="none" stroke="#FF6B35" stroke-width="1" stroke-dasharray="4 6" opacity="0.5"/>
  <text x="1120" y="618" font-family="monospace" font-size="10" fill="#FF6B35" text-anchor="middle">FRAUD RING DETECTED</text>

  <circle cx="1080" cy="700" r="14" fill="#1A1B1E" stroke="#FF6B35" stroke-width="2"/>
  <circle cx="1080" cy="700" r="6" fill="#FF6B35" opacity="0.9"/>
  <circle cx="1180" cy="640" r="11" fill="#1A1B1E" stroke="#FF6B35" stroke-width="1.5"/>
  <circle cx="1180" cy="640" r="5" fill="#FF6B35" opacity="0.8"/>
  <circle cx="1200" cy="720" r="11" fill="#1A1B1E" stroke="#FF6B35" stroke-width="1.5"/>
  <circle cx="1200" cy="720" r="5" fill="#FF6B35" opacity="0.8"/>
  <circle cx="1160" cy="780" r="10" fill="#1A1B1E" stroke="#FF6B35" stroke-width="1.5"/>
  <circle cx="1160" cy="780" r="4" fill="#FF6B35" opacity="0.7"/>
  <circle cx="1280" cy="600" r="9" fill="#1A1B1E" stroke="#FF6B35" stroke-width="1.5"/>
  <circle cx="1280" cy="600" r="4" fill="#FF6B35" opacity="0.6"/>
  <circle cx="1280" cy="700" r="9" fill="#1A1B1E" stroke="#FF6B35" stroke-width="1.5"/>
  <circle cx="1280" cy="700" r="4" fill="#FF6B35" opacity="0.6"/>
  <circle cx="1240" cy="820" r="9" fill="#1A1B1E" stroke="#FF6B35" stroke-width="1.5"/>
  <circle cx="1240" cy="820" r="4" fill="#FF6B35" opacity="0.6"/>
  <circle cx="1360" cy="560" r="8" fill="#1A1B1E" stroke="#FF6B35" stroke-width="1"/>
  <circle cx="1360" cy="560" r="3" fill="#FF6B35" opacity="0.5"/>

  <!-- Score distribution panel -->
  <rect x="60" y="140" width="240" height="280" rx="4" fill="#0F1018" stroke="#1F2024" stroke-width="1"/>
  <rect x="60" y="140" width="240" height="26" rx="4" fill="#1A1B1E"/>
  <text x="74" y="158" font-family="monospace" font-size="9" fill="#8A8C92" letter-spacing="1">ANOMALY SCORES</text>
  <!-- Mini histogram bars -->
  <text x="74" y="186" font-family="monospace" font-size="8" fill="#555860">SCORE DISTRIBUTION</text>
  <!-- Bars -->
  <rect x="74" y="220" width="14" height="60" fill="#2A2B30" opacity="0.8"/>
  <rect x="94" y="200" width="14" height="80" fill="#2A2B30" opacity="0.8"/>
  <rect x="114" y="185" width="14" height="95" fill="#2A2B30" opacity="0.8"/>
  <rect x="134" y="205" width="14" height="75" fill="#2A2B30" opacity="0.8"/>
  <rect x="154" y="230" width="14" height="50" fill="#3D2BFF" opacity="0.6"/>
  <rect x="174" y="248" width="14" height="32" fill="#FF6B35" opacity="0.6"/>
  <rect x="194" y="256" width="14" height="24" fill="#FF6B35" opacity="0.7"/>
  <rect x="214" y="260" width="14" height="20" fill="#FF6B35" opacity="0.8"/>
  <rect x="234" y="264" width="14" height="16" fill="#FF6B35" opacity="0.9"/>
  <rect x="254" y="268" width="14" height="12" fill="#FF6B35"/>
  <!-- Axis -->
  <line x1="74" y1="280" x2="278" y2="280" stroke="#2A2B30" stroke-width="1"/>
  <text x="74" y="292" font-family="monospace" font-size="7" fill="#555860">0.0</text>
  <text x="278" y="292" font-family="monospace" font-size="7" fill="#555860" text-anchor="end">1.0</text>
  <!-- Threshold line -->
  <line x1="188" y1="190" x2="188" y2="280" stroke="#FACC15" stroke-width="1" stroke-dasharray="2 3"/>
  <text x="190" y="200" font-family="monospace" font-size="7" fill="#FACC15">THRESHOLD</text>
  <text x="74" y="316" font-family="monospace" font-size="8" fill="#FF6B35">FLAGGED: 847 claims</text>
  <text x="74" y="330" font-family="monospace" font-size="8" fill="#555860">PRECISION: 91.4%</text>
  <text x="74" y="344" font-family="monospace" font-size="8" fill="#555860">RECALL:    88.2%</text>
  <text x="74" y="358" font-family="monospace" font-size="8" fill="#3D2BFF">F1: 0.898</text>
  <text x="74" y="372" font-family="monospace" font-size="8" fill="#555860">SAVINGS: $4.2M est.</text>

  <!-- Label -->
  <text x="60" y="870" font-family="monospace" font-size="22" fill="#1F2024" letter-spacing="4">FWA PLATFORM</text>
  <text x="60" y="892" font-family="monospace" font-size="11" fill="#2A2B30" letter-spacing="2">FRAUD, WASTE &amp; ABUSE DETECTION · INSURANCE</text>

  <text x="1580" y="990" font-family="monospace" font-size="8" fill="#2A2B30" text-anchor="end">TODO: Replace with real photography</text>
</svg>
