<svg xmlns="http://www.w3.org/2000/svg" viewBox="0 0 1600 1000" width="1600" height="1000">
  <defs>
    <radialGradient id="bg-glow" cx="50%" cy="50%" r="70%">
      <stop offset="0%" stop-color="#0F1018"/>
      <stop offset="100%" stop-color="#0A0B0D"/>
    </radialGradient>
    <radialGradient id="node-glow-a" cx="50%" cy="50%" r="50%">
      <stop offset="0%" stop-color="#FFD400" stop-opacity="0.6"/>
      <stop offset="100%" stop-color="#FFD400" stop-opacity="0"/>
    </radialGradient>
    <radialGradient id="node-glow-b" cx="50%" cy="50%" r="50%">
      <stop offset="0%" stop-color="#FFD400" stop-opacity="0.3"/>
      <stop offset="100%" stop-color="#FFD400" stop-opacity="0"/>
    </radialGradient>
    <filter id="blur-sm">
      <feGaussianBlur stdDeviation="3"/>
    </filter>
    <filter id="blur-lg">
      <feGaussianBlur stdDeviation="12"/>
    </filter>
  </defs>

  <!-- Background -->
  <rect width="1600" height="1000" fill="url(#bg-glow)"/>

  <!-- Grid lines - geographic suggestion -->
  <g stroke="#1F2024" stroke-width="1" fill="none">
    <!-- Horizontal grid -->
    <line x1="0" y1="200" x2="1600" y2="200"/>
    <line x1="0" y1="350" x2="1600" y2="350"/>
    <line x1="0" y1="500" x2="1600" y2="500"/>
    <line x1="0" y1="650" x2="1600" y2="650"/>
    <line x1="0" y1="800" x2="1600" y2="800"/>
    <!-- Vertical grid -->
    <line x1="200" y1="0" x2="200" y2="1000"/>
    <line x1="400" y1="0" x2="400" y2="1000"/>
    <line x1="600" y1="0" x2="600" y2="1000"/>
    <line x1="800" y1="0" x2="800" y2="1000"/>
    <line x1="1000" y1="0" x2="1000" y2="1000"/>
    <line x1="1200" y1="0" x2="1200" y2="1000"/>
    <line x1="1400" y1="0" x2="1400" y2="1000"/>
  </g>

  <!-- Geographic map outline suggestion (Madhya Pradesh abstract) -->
  <path d="M 250 280 Q 320 240 430 260 Q 560 250 680 270 Q 750 280 820 260 Q 900 240 980 270 Q 1050 290 1100 280 Q 1150 270 1200 290 L 1200 480 Q 1150 500 1080 520 Q 1000 540 920 510 Q 850 490 780 520 Q 700 540 620 510 Q 540 490 460 520 Q 380 540 300 510 L 250 480 Z"
    fill="#1A1B1E" stroke="#2A2B30" stroke-width="1.5" opacity="0.7"/>

  <!-- Network edges (power lines) -->
  <g stroke="#2A2B30" stroke-width="1.5" fill="none" opacity="0.8">
    <line x1="380" y1="340" x2="520" y2="390"/>
    <line x1="520" y1="390" x2="680" y2="320"/>
    <line x1="680" y1="320" x2="820" y2="370"/>
    <line x1="820" y1="370" x2="960" y2="300"/>
    <line x1="960" y1="300" x2="1080" y2="360"/>
    <line x1="1080" y1="360" x2="1180" y2="430"/>
    <line x1="520" y1="390" x2="560" y2="480"/>
    <line x1="680" y1="320" x2="700" y2="440"/>
    <line x1="820" y1="370" x2="800" y2="480"/>
    <line x1="960" y1="300" x2="980" y2="430"/>
    <line x1="1080" y1="360" x2="1060" y2="480"/>
    <line x1="380" y1="340" x2="400" y2="460"/>
    <line x1="560" y1="480" x2="700" y2="440"/>
    <line x1="700" y1="440" x2="800" y2="480"/>
    <line x1="800" y1="480" x2="980" y2="430"/>
    <line x1="980" y1="430" x2="1060" y2="480"/>
    <line x1="400" y1="460" x2="560" y2="480"/>
  </g>

  <!-- Active power lines (indigo glow) -->
  <g stroke="#FFD400" stroke-width="1.5" fill="none" opacity="0.4">
    <line x1="680" y1="320" x2="820" y2="370"/>
    <line x1="820" y1="370" x2="800" y2="480"/>
    <line x1="700" y1="440" x2="800" y2="480"/>
  </g>
  <g stroke="#FFD400" stroke-width="3" fill="none" opacity="0.15" filter="url(#blur-sm)">
    <line x1="680" y1="320" x2="820" y2="370"/>
    <line x1="820" y1="370" x2="800" y2="480"/>
  </g>

  <!-- Transformer nodes -->
  <!-- Node 1 - normal -->
  <circle cx="380" cy="340" r="16" fill="#1A1B1E" stroke="#3A3B42" stroke-width="1.5"/>
  <circle cx="380" cy="340" r="6" fill="#3A3B42"/>
  <!-- Node 2 - normal -->
  <circle cx="520" cy="390" r="16" fill="#1A1B1E" stroke="#3A3B42" stroke-width="1.5"/>
  <circle cx="520" cy="390" r="6" fill="#3A3B42"/>
  <!-- Node 3 - active/pulsing -->
  <circle cx="680" cy="320" r="24" fill="#FFD400" opacity="0.1" filter="url(#blur-lg)"/>
  <circle cx="680" cy="320" r="18" fill="#1A1B1E" stroke="#FFD400" stroke-width="2"/>
  <circle cx="680" cy="320" r="7" fill="#FFD400" opacity="0.9"/>
  <!-- LIVE dot -->
  <circle cx="698" cy="302" r="4" fill="#FFD400"/>
  <text x="706" y="306" font-family="monospace" font-size="9" fill="#FFD400" font-weight="bold">LIVE</text>
  <!-- Node 4 - active -->
  <circle cx="820" cy="370" r="30" fill="#FFD400" opacity="0.08" filter="url(#blur-lg)"/>
  <circle cx="820" cy="370" r="18" fill="#1A1B1E" stroke="#FFD400" stroke-width="2.5"/>
  <circle cx="820" cy="370" r="8" fill="#FFD400" opacity="0.95"/>
  <circle cx="838" cy="352" r="4" fill="#FFD400"/>
  <text x="846" y="356" font-family="monospace" font-size="9" fill="#FFD400" font-weight="bold">LIVE</text>
  <!-- Node 5 - normal -->
  <circle cx="960" cy="300" r="16" fill="#1A1B1E" stroke="#3A3B42" stroke-width="1.5"/>
  <circle cx="960" cy="300" r="6" fill="#3A3B42"/>
  <!-- Node 6 - anomaly -->
  <circle cx="1080" cy="360" r="22" fill="#FF6B35" opacity="0.1" filter="url(#blur-lg)"/>
  <circle cx="1080" cy="360" r="18" fill="#1A1B1E" stroke="#FF6B35" stroke-width="2"/>
  <circle cx="1080" cy="360" r="7" fill="#FF6B35" opacity="0.8"/>
  <text x="1064" y="345" font-family="monospace" font-size="8" fill="#FF6B35">ALERT</text>
  <!-- Node 7 -->
  <circle cx="1180" cy="430" r="16" fill="#1A1B1E" stroke="#3A3B42" stroke-width="1.5"/>
  <circle cx="1180" cy="430" r="6" fill="#3A3B42"/>
  <!-- Bottom nodes -->
  <circle cx="400" cy="460" r="14" fill="#1A1B1E" stroke="#3A3B42" stroke-width="1.5"/>
  <circle cx="400" cy="460" r="5" fill="#3A3B42"/>
  <circle cx="560" cy="480" r="14" fill="#1A1B1E" stroke="#3A3B42" stroke-width="1.5"/>
  <circle cx="560" cy="480" r="5" fill="#3A3B42"/>
  <circle cx="700" cy="440" r="14" fill="#1A1B1E" stroke="#3A3B42" stroke-width="1.5"/>
  <circle cx="700" cy="440" r="5" fill="#3A3B42"/>
  <circle cx="800" cy="480" r="16" fill="#1A1B1E" stroke="#FFD400" stroke-width="1.5"/>
  <circle cx="800" cy="480" r="6" fill="#FFD400" opacity="0.7"/>
  <circle cx="980" cy="430" r="14" fill="#1A1B1E" stroke="#3A3B42" stroke-width="1.5"/>
  <circle cx="980" cy="430" r="5" fill="#3A3B42"/>
  <circle cx="1060" cy="480" r="14" fill="#1A1B1E" stroke="#3A3B42" stroke-width="1.5"/>
  <circle cx="1060" cy="480" r="5" fill="#3A3B42"/>

  <!-- KPI panel - top right -->
  <rect x="1260" y="140" width="280" height="340" rx="4" fill="#0F1018" stroke="#1F2024" stroke-width="1"/>
  <rect x="1260" y="140" width="280" height="28" rx="4" fill="#1A1B1E"/>
  <text x="1274" y="159" font-family="monospace" font-size="11" fill="#8A8C92" letter-spacing="1">GRID TELEMETRY</text>
  <!-- KPI rows -->
  <text x="1274" y="198" font-family="monospace" font-size="10" fill="#555860">VOLTAGE PHASE A</text>
  <text x="1490" y="198" font-family="monospace" font-size="10" fill="#E8E9EB" text-anchor="end">415.2V</text>
  <rect x="1274" y="204" width="246" height="1" fill="#1F2024"/>
  <text x="1274" y="224" font-family="monospace" font-size="10" fill="#555860">CURRENT DRAW</text>
  <text x="1490" y="224" font-family="monospace" font-size="10" fill="#E8E9EB" text-anchor="end">23.8A</text>
  <rect x="1274" y="230" width="246" height="1" fill="#1F2024"/>
  <text x="1274" y="250" font-family="monospace" font-size="10" fill="#555860">POWER FACTOR</text>
  <text x="1490" y="250" font-family="monospace" font-size="10" fill="#E8E9EB" text-anchor="end">0.94</text>
  <rect x="1274" y="256" width="246" height="1" fill="#1F2024"/>
  <text x="1274" y="276" font-family="monospace" font-size="10" fill="#555860">LOAD RATIO</text>
  <text x="1490" y="276" font-family="monospace" font-size="10" fill="#FFD400" text-anchor="end">78%</text>
  <rect x="1274" y="282" width="246" height="1" fill="#1F2024"/>
  <text x="1274" y="302" font-family="monospace" font-size="10" fill="#555860">DTRs ONLINE</text>
  <text x="1490" y="302" font-family="monospace" font-size="10" fill="#4ADE80" text-anchor="end">7 / 8</text>
  <rect x="1274" y="308" width="246" height="1" fill="#1F2024"/>
  <text x="1274" y="328" font-family="monospace" font-size="10" fill="#555860">ANOMALIES</text>
  <text x="1490" y="328" font-family="monospace" font-size="10" fill="#FF6B35" text-anchor="end">1 ACTIVE</text>
  <rect x="1274" y="334" width="246" height="1" fill="#1F2024"/>
  <text x="1274" y="354" font-family="monospace" font-size="10" fill="#555860">LAST SYNC</text>
  <text x="1490" y="354" font-family="monospace" font-size="10" fill="#8A8C92" text-anchor="end">3 min ago</text>
  <rect x="1274" y="360" width="246" height="1" fill="#1F2024"/>
  <text x="1274" y="380" font-family="monospace" font-size="10" fill="#555860">ACCURACY CLASS</text>
  <text x="1490" y="380" font-family="monospace" font-size="10" fill="#E8E9EB" text-anchor="end">0.5</text>
  <rect x="1274" y="386" width="246" height="1" fill="#1F2024"/>
  <!-- Live indicator -->
  <circle cx="1274" cy="459" r="4" fill="#4ADE80"/>
  <text x="1284" y="463" font-family="monospace" font-size="9" fill="#4ADE80" letter-spacing="1">STREAMING · GPRS</text>

  <!-- Mini waveform - bottom left panel -->
  <rect x="60" y="600" width="320" height="160" rx="4" fill="#0F1018" stroke="#1F2024" stroke-width="1"/>
  <text x="74" y="622" font-family="monospace" font-size="10" fill="#8A8C92" letter-spacing="1">VOLTAGE WAVEFORM · DTR-04</text>
  <polyline points="80,700 100,670 120,690 140,660 160,680 180,650 200,672 220,658 240,675 260,648 280,668 300,655 320,672 340,660 360,678" fill="none" stroke="#FFD400" stroke-width="1.5" opacity="0.8"/>
  <line x1="74" y1="750" x2="370" y2="750" stroke="#1F2024" stroke-width="1"/>
  <text x="74" y="762" font-family="monospace" font-size="8" fill="#555860">00:00</text>
  <text x="370" y="762" font-family="monospace" font-size="8" fill="#555860" text-anchor="end">05:00</text>

  <!-- Label bottom-left -->
  <text x="60" y="820" font-family="monospace" font-size="22" fill="#1F2024" letter-spacing="4">iDTRM</text>
  <text x="60" y="842" font-family="monospace" font-size="11" fill="#2A2B30" letter-spacing="2">INTELLIGENT DISTRIBUTION TRANSFORMER</text>
  <text x="60" y="860" font-family="monospace" font-size="11" fill="#2A2B30" letter-spacing="2">REMOTE MONITORING SYSTEM</text>

  <!-- TODO watermark -->
  <text x="1580" y="990" font-family="monospace" font-size="8" fill="#2A2B30" text-anchor="end">TODO: Replace with real photography</text>
</svg>
