<svg xmlns="http://www.w3.org/2000/svg" viewBox="0 0 1600 1000" width="1600" height="1000">
  <defs>
    <radialGradient id="bg" cx="50%" cy="50%" r="70%">
      <stop offset="0%" stop-color="#0C0D12"/>
      <stop offset="100%" stop-color="#0A0B0D"/>
    </radialGradient>
    <radialGradient id="ring-glow" cx="50%" cy="50%" r="50%">
      <stop offset="0%" stop-color="#FFD400" stop-opacity="0.2"/>
      <stop offset="100%" stop-color="#FFD400" stop-opacity="0"/>
    </radialGradient>
    <filter id="fg">
      <feGaussianBlur stdDeviation="6"/>
    </filter>
    <filter id="fg-sm">
      <feGaussianBlur stdDeviation="2"/>
    </filter>
  </defs>

  <rect width="1600" height="1000" fill="url(#bg)"/>

  <!-- Subtle grid -->
  <g stroke="#1A1B1E" stroke-width="0.5" fill="none">
    <line x1="0" y1="250" x2="1600" y2="250"/>
    <line x1="0" y1="500" x2="1600" y2="500"/>
    <line x1="0" y1="750" x2="1600" y2="750"/>
    <line x1="400" y1="0" x2="400" y2="1000"/>
    <line x1="800" y1="0" x2="800" y2="1000"/>
    <line x1="1200" y1="0" x2="1200" y2="1000"/>
  </g>

  <!-- Central biomarker circular diagram -->
  <!-- Outer rings -->
  <circle cx="760" cy="460" r="300" fill="none" stroke="#1F2024" stroke-width="1"/>
  <circle cx="760" cy="460" r="240" fill="none" stroke="#1F2024" stroke-width="1" stroke-dasharray="4 8"/>
  <circle cx="760" cy="460" r="180" fill="none" stroke="#2A2B30" stroke-width="1.5"/>
  <circle cx="760" cy="460" r="120" fill="none" stroke="#2A2B30" stroke-width="1.5"/>
  <circle cx="760" cy="460" r="60" fill="#0F1018" stroke="#FFD400" stroke-width="2"/>

  <!-- Radial spokes -->
  <g stroke="#1F2024" stroke-width="1" fill="none">
    <line x1="760" y1="160" x2="760" y2="760"/>
    <line x1="460" y1="460" x2="1060" y2="460"/>
    <line x1="548" y1="248" x2="972" y2="672"/>
    <line x1="548" y1="672" x2="972" y2="248"/>
  </g>

  <!-- Biomarker indicators on rings -->
  <!-- Ring 3 (180r) - 8 biomarker nodes -->
  <g fill="#FFD400">
    <circle cx="760" cy="280" r="6" opacity="0.9"/>
    <circle cx="887" cy="327" r="6" opacity="0.7"/>
    <circle cx="940" cy="460" r="6" opacity="0.5"/>
    <circle cx="887" cy="593" r="6" opacity="0.4"/>
    <circle cx="760" cy="640" r="6" opacity="0.6"/>
    <circle cx="633" cy="593" r="6" opacity="0.8"/>
    <circle cx="580" cy="460" r="6" opacity="0.9"/>
    <circle cx="633" cy="327" r="6" opacity="0.7"/>
  </g>
  <!-- Labels on biomarkers -->
  <text x="760" y="268" font-family="monospace" font-size="8" fill="#FFD400" text-anchor="middle">CA-125</text>
  <text x="900" y="316" font-family="monospace" font-size="8" fill="#555860">PSA</text>
  <text x="954" y="464" font-family="monospace" font-size="8" fill="#555860">CEA</text>
  <text x="898" y="600" font-family="monospace" font-size="8" fill="#555860">HER2</text>
  <text x="760" y="656" font-family="monospace" font-size="8" fill="#555860" text-anchor="middle">AFP</text>
  <text x="570" y="600" font-family="monospace" font-size="8" fill="#FFD400" text-anchor="end">BRCA1</text>
  <text x="564" y="464" font-family="monospace" font-size="8" fill="#FFD400" text-anchor="end">TP53</text>
  <text x="570" y="316" font-family="monospace" font-size="8" fill="#555860" text-anchor="end">KRAS</text>

  <!-- Ring 2 (120r) - risk nodes -->
  <g fill="#8A8C92">
    <circle cx="760" cy="340" r="4" opacity="0.6"/>
    <circle cx="864" cy="400" r="4" opacity="0.4"/>
    <circle cx="880" cy="460" r="4" opacity="0.5"/>
    <circle cx="864" cy="520" r="4" opacity="0.3"/>
    <circle cx="760" cy="580" r="4" opacity="0.4"/>
    <circle cx="656" cy="520" r="4" opacity="0.6"/>
    <circle cx="640" cy="460" r="4" opacity="0.7"/>
    <circle cx="656" cy="400" r="4" opacity="0.5"/>
  </g>

  <!-- Center - Risk Score -->
  <circle cx="760" cy="460" r="42" fill="#FFD400" opacity="0.12" filter="url(#fg)"/>
  <text x="760" y="452" font-family="monospace" font-size="10" fill="#8A8C92" text-anchor="middle">RISK SCORE</text>
  <text x="760" y="472" font-family="monospace" font-size="18" fill="#E8E9EB" text-anchor="middle" font-weight="bold">0.23</text>

  <!-- Risk gauge - right side -->
  <rect x="1140" y="200" width="200" height="340" rx="4" fill="#0F1018" stroke="#1F2024" stroke-width="1"/>
  <rect x="1140" y="200" width="200" height="26" rx="4" fill="#1A1B1E"/>
  <text x="1154" y="218" font-family="monospace" font-size="9" fill="#8A8C92" letter-spacing="1">RISK GAUGE</text>
  <!-- Gauge arc -->
  <path d="M 1190 390 A 50 50 0 0 1 1290 390" fill="none" stroke="#1F2024" stroke-width="8"/>
  <path d="M 1190 390 A 50 50 0 0 1 1225 305" fill="none" stroke="#4ADE80" stroke-width="8" stroke-linecap="round"/>
  <circle cx="1225" cy="305" r="5" fill="#4ADE80"/>
  <text x="1240" y="360" font-family="monospace" font-size="22" fill="#4ADE80" text-anchor="middle">LOW</text>
  <text x="1240" y="378" font-family="monospace" font-size="11" fill="#4ADE80" text-anchor="middle">23%</text>
  <!-- Risk legend -->
  <rect x="1160" y="420" width="8" height="8" fill="#4ADE80"/>
  <text x="1174" y="428" font-family="monospace" font-size="8" fill="#555860">LOW RISK</text>
  <rect x="1160" y="436" width="8" height="8" fill="#FACC15"/>
  <text x="1174" y="444" font-family="monospace" font-size="8" fill="#555860">MODERATE</text>
  <rect x="1160" y="452" width="8" height="8" fill="#FF6B35"/>
  <text x="1174" y="460" font-family="monospace" font-size="8" fill="#555860">HIGH RISK</text>
  <rect x="1160" y="468" width="8" height="8" fill="#DC2626"/>
  <text x="1174" y="476" font-family="monospace" font-size="8" fill="#555860">CRITICAL</text>
  <text x="1154" y="510" font-family="monospace" font-size="8" fill="#FFD400">COHORT: N=2,847</text>

  <!-- Patient flow diagram - left -->
  <rect x="80" y="200" width="280" height="360" rx="4" fill="#0F1018" stroke="#1F2024" stroke-width="1"/>
  <rect x="80" y="200" width="280" height="26" rx="4" fill="#1A1B1E"/>
  <text x="94" y="218" font-family="monospace" font-size="9" fill="#8A8C92" letter-spacing="1">PATIENT FLOW</text>
  <!-- Flow boxes -->
  <rect x="110" y="244" width="220" height="32" rx="2" fill="#1A1B1E" stroke="#2A2B30" stroke-width="1"/>
  <text x="220" y="264" font-family="monospace" font-size="9" fill="#8A8C92" text-anchor="middle">SCREENING COHORT</text>
  <text x="220" y="276" font-family="monospace" font-size="8" fill="#555860" text-anchor="middle">n = 12,400</text>
  <line x1="220" y1="276" x2="220" y2="296" stroke="#2A2B30" stroke-width="1"/>
  <polygon points="214,296 220,304 226,296" fill="#2A2B30"/>

  <rect x="110" y="304" width="220" height="32" rx="2" fill="#1A1B1E" stroke="#2A2B30" stroke-width="1"/>
  <text x="220" y="324" font-family="monospace" font-size="9" fill="#8A8C92" text-anchor="middle">BIOMARKER PANEL</text>
  <text x="220" y="336" font-family="monospace" font-size="8" fill="#555860" text-anchor="middle">n = 8,231 eligible</text>
  <line x1="220" y1="336" x2="220" y2="356" stroke="#2A2B30" stroke-width="1"/>
  <polygon points="214,356 220,364 226,356" fill="#2A2B30"/>

  <rect x="110" y="364" width="100" height="32" rx="2" fill="#1A1B1E" stroke="#FFD400" stroke-width="1"/>
  <text x="160" y="380" font-family="monospace" font-size="8" fill="#FFD400" text-anchor="middle">HIGH RISK</text>
  <text x="160" y="392" font-family="monospace" font-size="8" fill="#FFD400" text-anchor="middle">n = 947</text>
  <rect x="230" y="364" width="100" height="32" rx="2" fill="#1A1B1E" stroke="#4ADE80" stroke-width="1"/>
  <text x="280" y="380" font-family="monospace" font-size="8" fill="#4ADE80" text-anchor="middle">LOW RISK</text>
  <text x="280" y="392" font-family="monospace" font-size="8" fill="#4ADE80" text-anchor="middle">n = 7,284</text>

  <line x1="160" y1="396" x2="160" y2="416" stroke="#FFD400" stroke-width="1" opacity="0.6"/>
  <polygon points="154,416 160,424 166,416" fill="#FFD400" opacity="0.6"/>

  <rect x="110" y="424" width="100" height="32" rx="2" fill="#1A1B1E" stroke="#FF6B35" stroke-width="1"/>
  <text x="160" y="440" font-family="monospace" font-size="8" fill="#FF6B35" text-anchor="middle">INTERVENTION</text>
  <text x="160" y="452" font-family="monospace" font-size="8" fill="#FF6B35" text-anchor="middle">RECOMMENDED</text>

  <text x="94" y="520" font-family="monospace" font-size="8" fill="#FFD400">PPV: 94.2%  NPV: 98.7%</text>
  <text x="94" y="534" font-family="monospace" font-size="8" fill="#555860">AUC-ROC: 0.963</text>

  <!-- Label -->
  <text x="80" y="840" font-family="monospace" font-size="22" fill="#1F2024" letter-spacing="4">SALT-LICK</text>
  <text x="80" y="862" font-family="monospace" font-size="11" fill="#2A2B30" letter-spacing="2">CANCER PREVENTION · AI BIOMARKER ANALYSIS</text>

  <text x="1580" y="990" font-family="monospace" font-size="8" fill="#2A2B30" text-anchor="end">TODO: Replace with real photography</text>
</svg>
