<svg xmlns="http://www.w3.org/2000/svg" width="500" height="400" viewBox="0 0 500 400" fill="none" role="img" aria-label="AI solutions">
  <rect width="500" height="400" fill="#151517"/>
  <!-- RAG pipeline -->
  <g font-family="monospace" font-size="12" fill="#F4F4F2" text-anchor="middle">
    <rect x="40" y="120" width="96" height="48" rx="8" fill="#1C1C1F" stroke="#2A2A2E"/><text x="88" y="148">Your data</text>
    <rect x="40" y="232" width="96" height="48" rx="8" fill="#1C1C1F" stroke="#2A2A2E"/><text x="88" y="260">Question</text>
    <rect x="200" y="176" width="100" height="48" rx="8" fill="#1C1C1F" stroke="#FFD400"/><text x="250" y="204">Retrieve</text>
    <rect x="364" y="176" width="100" height="48" rx="8" fill="#FFD400"/><text x="414" y="204" fill="#0A0A0A">Answer</text>
    <line x1="136" y1="144" x2="200" y2="192" stroke="#2A2A2E" stroke-width="1.5"/>
    <line x1="136" y1="256" x2="200" y2="208" stroke="#2A2A2E" stroke-width="1.5"/>
    <line x1="300" y1="200" x2="364" y2="200" stroke="#FFD400" stroke-width="2"/>
  </g>
  <!-- chat bubble accent -->
  <path d="M210 70 h80 a12 12 0 0 1 12 12 v28 a12 12 0 0 1 -12 12 h-44 l-18 16 v-16 h-18 a12 12 0 0 1 -12 -12 v-28 a12 12 0 0 1 12 -12 Z" fill="#0F0F11" stroke="#2A2A2E"/>
  <circle cx="228" cy="96" r="4" fill="#FFD400"/><circle cx="250" cy="96" r="4" fill="#FFD400"/><circle cx="272" cy="96" r="4" fill="#FFD400"/>
  <text x="250" y="338" font-family="monospace" font-size="14" fill="#9C9CA2" text-anchor="middle">grounded · auditable · in production</text>
</svg>
