<svg xmlns="http://www.w3.org/2000/svg" width="500" height="400" viewBox="0 0 500 400" fill="none" role="img" aria-label="App development">
  <rect width="500" height="400" fill="#151517"/>
  <!-- phone -->
  <rect x="180" y="56" width="140" height="280" rx="22" fill="#1C1C1F" stroke="#2A2A2E" stroke-width="1.5"/>
  <rect x="194" y="78" width="112" height="236" rx="8" fill="#0B0B0D"/>
  <rect x="226" y="66" width="48" height="6" rx="3" fill="#3A3A3E"/>
  <rect x="208" y="96" width="84" height="14" rx="4" fill="#FFD400"/>
  <rect x="208" y="124" width="84" height="40" rx="6" fill="#1C1C1F" stroke="#2A2A2E"/>
  <rect x="208" y="174" width="40" height="40" rx="6" fill="#1C1C1F" stroke="#2A2A2E"/>
  <rect x="252" y="174" width="40" height="40" rx="6" fill="#1C1C1F" stroke="#2A2A2E"/>
  <rect x="208" y="224" width="84" height="14" rx="4" fill="#2A2A2E"/>
  <circle cx="250" cy="296" r="12" fill="#FFD400"/>
  <!-- connectors to API -->
  <line x1="320" y1="150" x2="400" y2="150" stroke="#FFD400" stroke-width="2" stroke-dasharray="4 5"/>
  <line x1="180" y1="150" x2="100" y2="150" stroke="#FFD400" stroke-width="2" stroke-dasharray="4 5"/>
  <rect x="60" y="132" width="44" height="36" rx="6" fill="#0F0F11" stroke="#2A2A2E"/>
  <rect x="396" y="132" width="44" height="36" rx="6" fill="#0F0F11" stroke="#2A2A2E"/>
  <text x="82" y="120" font-family="monospace" font-size="11" fill="#9C9CA2" text-anchor="middle">iOS</text>
  <text x="418" y="120" font-family="monospace" font-size="11" fill="#9C9CA2" text-anchor="middle">Android</text>
  <text x="250" y="372" font-family="monospace" font-size="15" fill="#9C9CA2" text-anchor="middle">one codebase · two platforms · one API</text>
</svg>
