<svg xmlns="http://www.w3.org/2000/svg" viewBox="0 0 500 400" width="500" height="400">
  <defs>
    <marker id="arrow" markerWidth="8" markerHeight="8" refX="6" refY="3" orient="auto">
      <path d="M 0 0 L 6 3 L 0 6 Z" fill="#3D2BFF"/>
    </marker>
    <marker id="arrow-sm" markerWidth="6" markerHeight="6" refX="5" refY="3" orient="auto">
      <path d="M 0 0 L 5 3 L 0 6 Z" fill="#8A8C92"/>
    </marker>
  </defs>

  <!-- Background -->
  <rect width="500" height="400" fill="#FAFAF7"/>

  <!-- Title -->
  <text x="250" y="26" font-family="sans-serif" font-size="11" fill="#8A8C92" text-anchor="middle" letter-spacing="2">GRID INTELLIGENCE FLOW</text>

  <!-- ─── MAIN PIPELINE (horizontal) ─── -->
  <!-- 1. Transformer -->
  <rect x="20" y="80" width="80" height="100" rx="8" fill="#FFFFFF" stroke="#E8E6DF" stroke-width="1.5"/>
  <!-- Transformer icon -->
  <circle cx="60" cy="108" r="16" fill="none" stroke="#3D2BFF" stroke-width="2"/>
  <circle cx="60" cy="132" r="16" fill="none" stroke="#0A0B0D" stroke-width="2"/>
  <rect x="30" y="108" width="60" height="2" fill="#F0EEE8"/>
  <text x="60" y="168" font-family="sans-serif" font-size="9" fill="#0A0B0D" text-anchor="middle" font-weight="600">DTR</text>
  <text x="60" y="180" font-family="sans-serif" font-size="8" fill="#8A8C92" text-anchor="middle">Transformer</text>

  <!-- Arrow + GPRS label -->
  <line x1="100" y1="130" x2="148" y2="130" stroke="#3D2BFF" stroke-width="1.5" marker-end="url(#arrow)"/>
  <text x="124" y="124" font-family="monospace" font-size="8" fill="#8A8C92" text-anchor="middle">GPRS</text>
  <text x="124" y="144" font-family="monospace" font-size="7" fill="#8A8C92" text-anchor="middle">5 min</text>

  <!-- 2. Data ingestion -->
  <rect x="150" y="80" width="80" height="100" rx="8" fill="#FFFFFF" stroke="#E8E6DF" stroke-width="1.5"/>
  <!-- Waveform icon -->
  <polyline points="164,130 172,115 180,138 188,118 196,130 204,125 212,130 220,130" fill="none" stroke="#3D2BFF" stroke-width="1.5" stroke-linejoin="round"/>
  <text x="190" y="168" font-family="sans-serif" font-size="9" fill="#0A0B0D" text-anchor="middle" font-weight="600">Ingestion</text>
  <text x="190" y="180" font-family="sans-serif" font-size="8" fill="#8A8C92" text-anchor="middle">Edge Node</text>

  <!-- Arrow -->
  <line x1="230" y1="130" x2="278" y2="130" stroke="#3D2BFF" stroke-width="1.5" marker-end="url(#arrow)"/>

  <!-- 3. Cloud platform -->
  <rect x="280" y="80" width="80" height="100" rx="8" fill="#EDE9FF" stroke="#3D2BFF" stroke-width="2"/>
  <!-- Cloud icon -->
  <path d="M 298 125 Q 298 112 308 112 Q 312 104 322 106 Q 328 100 338 104 Q 348 100 350 110 Q 358 112 356 122 Q 356 132 344 132 L 302 132 Q 294 132 298 125 Z" fill="#3D2BFF" opacity="0.15" stroke="#3D2BFF" stroke-width="1"/>
  <text x="320" y="168" font-family="sans-serif" font-size="9" fill="#3D2BFF" text-anchor="middle" font-weight="600">Cloud</text>
  <text x="320" y="180" font-family="sans-serif" font-size="8" fill="#3D2BFF" text-anchor="middle">Platform</text>

  <!-- Arrow -->
  <line x1="360" y1="130" x2="408" y2="130" stroke="#3D2BFF" stroke-width="1.5" marker-end="url(#arrow)"/>

  <!-- 4. Dashboard -->
  <rect x="410" y="80" width="72" height="100" rx="8" fill="#FFFFFF" stroke="#E8E6DF" stroke-width="1.5"/>
  <!-- Screen icon -->
  <rect x="422" y="100" width="48" height="30" rx="2" fill="#F0EEE8" stroke="#E8E6DF" stroke-width="1"/>
  <rect x="428" y="108" width="14" height="8" rx="1" fill="#3D2BFF" opacity="0.3"/>
  <rect x="444" y="108" width="20" height="4" rx="1" fill="#E8E6DF"/>
  <rect x="444" y="114" width="16" height="4" rx="1" fill="#E8E6DF"/>
  <text x="446" y="168" font-family="sans-serif" font-size="9" fill="#0A0B0D" text-anchor="middle" font-weight="600">Dashboard</text>
  <text x="446" y="180" font-family="sans-serif" font-size="8" fill="#8A8C92" text-anchor="middle">Operations</text>

  <!-- ─── BRANCHING ANALYTICS (from cloud, downward) ─── -->
  <text x="250" y="210" font-family="sans-serif" font-size="10" fill="#8A8C92" text-anchor="middle" letter-spacing="1">ANALYTICS BRANCHES</text>
  <line x1="320" y1="180" x2="320" y2="220" stroke="#3D2BFF" stroke-width="1.5"/>
  <line x1="100" y1="220" x2="440" y2="220" stroke="#3D2BFF" stroke-width="1.5"/>

  <!-- Branch 1: Anomaly Detection -->
  <line x1="150" y1="220" x2="150" y2="250" stroke="#8A8C92" stroke-width="1" marker-end="url(#arrow-sm)"/>
  <rect x="86" y="252" width="128" height="54" rx="6" fill="#FFFFFF" stroke="#E8E6DF" stroke-width="1.5"/>
  <text x="150" y="272" font-family="sans-serif" font-size="9" fill="#0A0B0D" text-anchor="middle" font-weight="600">Anomaly Detection</text>
  <circle cx="122" cy="289" r="4" fill="#EF4444"/>
  <text x="132" y="293" font-family="sans-serif" font-size="8" fill="#8A8C92">Fault pre-warning</text>

  <!-- Branch 2: Load Forecasting -->
  <line x1="310" y1="220" x2="310" y2="250" stroke="#8A8C92" stroke-width="1" marker-end="url(#arrow-sm)"/>
  <rect x="246" y="252" width="128" height="54" rx="6" fill="#FFFFFF" stroke="#E8E6DF" stroke-width="1.5"/>
  <text x="310" y="272" font-family="sans-serif" font-size="9" fill="#0A0B0D" text-anchor="middle" font-weight="600">Load Forecasting</text>
  <polyline points="258,290 268,280 278,286 288,276 298,282 308,272 318,278 328,270 338,276 348,268 358,274 368,266" fill="none" stroke="#3D2BFF" stroke-width="1.5" stroke-linejoin="round"/>

  <!-- Branch 3: Theft Analytics -->
  <line x1="440" y1="220" x2="440" y2="250" stroke="#8A8C92" stroke-width="1" marker-end="url(#arrow-sm)"/>
  <rect x="384" y="252" width="98" height="54" rx="6" fill="#FFFFFF" stroke="#E8E6DF" stroke-width="1.5"/>
  <text x="433" y="272" font-family="sans-serif" font-size="9" fill="#0A0B0D" text-anchor="middle" font-weight="600">Theft Analytics</text>
  <path d="M 416 282 L 433 278 L 450 282 L 450 292 Q 433 298 416 292 Z" fill="none" stroke="#F59E0B" stroke-width="1.5"/>
  <text x="433" y="298" font-family="sans-serif" font-size="8" fill="#8A8C92" text-anchor="middle">Tamper detect</text>

  <!-- ─── STATUS FOOTER ─── -->
  <rect x="20" y="330" width="460" height="50" rx="6" fill="#FFFFFF" stroke="#E8E6DF" stroke-width="1"/>
  <circle cx="44" cy="355" r="5" fill="#22C55E"/>
  <text x="56" y="359" font-family="monospace" font-size="9" fill="#0A0B0D">LIVE · iDTRM Deployed</text>
  <text x="56" y="372" font-family="monospace" font-size="8" fill="#8A8C92">8 DTRs · 5-min refresh · 40-day retention · 0.5 accuracy class</text>
</svg>
