<svg xmlns="http://www.w3.org/2000/svg" width="500" height="400" viewBox="0 0 500 400" fill="none" role="img" aria-label="Game development">
  <rect width="500" height="400" fill="#151517"/>
  <!-- controller body -->
  <path d="M150 150 h200 a70 70 0 0 1 64 99 l-22 56 a40 40 0 0 1 -70 6 l-20 -34 h-78 l-20 34 a40 40 0 0 1 -70 -6 l-22 -56 a70 70 0 0 1 64 -99 Z" fill="#1C1C1F" stroke="#2A2A2E" stroke-width="1.5"/>
  <!-- d-pad -->
  <rect x="168" y="196" width="14" height="42" rx="3" fill="#9C9CA2"/>
  <rect x="154" y="210" width="42" height="14" rx="3" fill="#9C9CA2"/>
  <!-- buttons -->
  <circle cx="320" cy="200" r="11" fill="#FFD400"/>
  <circle cx="346" cy="224" r="11" fill="#3A3A3E"/>
  <circle cx="294" cy="224" r="11" fill="#3A3A3E"/>
  <circle cx="320" cy="248" r="11" fill="#3A3A3E"/>
  <!-- analog sticks -->
  <circle cx="220" cy="262" r="16" fill="#0B0B0D" stroke="#2A2A2E"/>
  <circle cx="280" cy="262" r="16" fill="#0B0B0D" stroke="#2A2A2E"/>
  <text x="250" y="356" font-family="monospace" font-size="15" fill="#9C9CA2" text-anchor="middle">design → engine → playtest → live-ops</text>
</svg>
