<svg xmlns="http://www.w3.org/2000/svg" width="500" height="400" viewBox="0 0 500 400" fill="none" role="img" aria-label="Website development">
  <rect width="500" height="400" fill="#151517"/>
  <rect x="70" y="70" width="360" height="240" rx="10" fill="#1C1C1F" stroke="#2A2A2E" stroke-width="1.5"/>
  <rect x="70" y="70" width="360" height="36" rx="10" fill="#0B0B0D"/>
  <circle cx="92" cy="88" r="5" fill="#FFD400"/>
  <circle cx="110" cy="88" r="5" fill="#3A3A3E"/>
  <circle cx="128" cy="88" r="5" fill="#3A3A3E"/>
  <rect x="200" y="82" width="190" height="12" rx="6" fill="#0F0F11"/>
  <rect x="92" y="130" width="150" height="22" rx="4" fill="#FFD400"/>
  <rect x="92" y="166" width="316" height="10" rx="5" fill="#3A3A3E"/>
  <rect x="92" y="184" width="280" height="10" rx="5" fill="#2A2A2E"/>
  <rect x="92" y="214" width="96" height="32" rx="16" fill="#FFD400"/>
  <rect x="270" y="214" width="138" height="68" rx="6" fill="#0F0F11" stroke="#2A2A2E"/>
  <rect x="92" y="262" width="150" height="10" rx="5" fill="#2A2A2E"/>
  <text x="250" y="356" font-family="monospace" font-size="15" fill="#9C9CA2" text-anchor="middle">design → build → optimise → launch</text>
</svg>
